<svg xmlns="http://www.w3.org/2000/svg" xmlns:xlink="http://www.w3.org/1999/xlink" version="1.0" x="0" y="0" width="2400" height="278.9358356567004" viewBox="47.71550018310547 110.78769714355468 244.56899963378908 28.424607620239257" preserveAspectRatio="xMidYMid meet" color-interpolation-filters="sRGB"><g><defs><linearGradient id="92" x1="0%" y1="0%" x2="100%" y2="0%"><stop offset="0%" stop-color="#fa71cd"></stop> <stop offset="100%" stop-color="#9b59b6"></stop></linearGradient><linearGradient id="93" x1="0%" y1="0%" x2="100%" y2="0%"><stop offset="0%" stop-color="#f9d423"></stop> <stop offset="100%" stop-color="#f83600"></stop></linearGradient><linearGradient id="94" x1="0%" y1="0%" x2="100%" y2="0%"><stop offset="0%" stop-color="#0064d2"></stop> <stop offset="100%" stop-color="#1cb0f6"></stop></linearGradient><linearGradient id="95" x1="0%" y1="0%" x2="100%" y2="0%"><stop offset="0%" stop-color="#f00978"></stop> <stop offset="100%" stop-color="#3f51b1"></stop></linearGradient><linearGradient id="96" x1="0%" y1="0%" x2="100%" y2="0%"><stop offset="0%" stop-color="#7873f5"></stop> <stop offset="100%" stop-color="#ec77ab"></stop></linearGradient><linearGradient id="97" x1="0%" y1="0%" x2="100%" y2="0%"><stop offset="0%" stop-color="#f9d423"></stop> <stop offset="100%" stop-color="#e14fad"></stop></linearGradient><linearGradient id="98" x1="0%" y1="0%" x2="100%" y2="0%"><stop offset="0%" stop-color="#009efd"></stop> <stop offset="100%" stop-color="#2af598"></stop></linearGradient><linearGradient id="99" x1="0%" y1="0%" x2="100%" y2="0%"><stop offset="0%" stop-color="#ffcc00"></stop> <stop offset="100%" stop-color="#00b140"></stop></linearGradient><linearGradient id="100" x1="0%" y1="0%" x2="100%" y2="0%"><stop offset="0%" stop-color="#d51007"></stop> <stop offset="100%" stop-color="#ff8177"></stop></linearGradient><linearGradient id="102" x1="0%" y1="0%" x2="100%" y2="0%"><stop offset="0%" stop-color="#a2b6df"></stop> <stop offset="100%" stop-color="#0c3483"></stop></linearGradient><linearGradient id="103" x1="0%" y1="0%" x2="100%" y2="0%"><stop offset="0%" stop-color="#7ac5d8"></stop> <stop offset="100%" stop-color="#eea2a2"></stop></linearGradient><linearGradient id="104" x1="0%" y1="0%" x2="100%" y2="0%"><stop offset="0%" stop-color="#00ecbc"></stop> <stop offset="100%" stop-color="#007adf"></stop></linearGradient><linearGradient id="105" x1="0%" y1="0%" x2="100%" y2="0%"><stop offset="0%" stop-color="#b88746"></stop> <stop offset="100%" stop-color="#fdf5a6"></stop></linearGradient></defs><g fill="#ffffff" class="iconblsvg-g iconsvg" transform="translate(50.11323547363281,113.18543148040771)"><g class="tp-name"><g stroke="#ffffff" transform="translate(0, 1.4690372934400031)"><g transform="scale(1)"><path d="M12.08-11.32L12.08 0 11.38 0 10.26-1.56Q9.85-1.19 9.39-0.86 8.93-0.54 8.42-0.3 7.91-0.06 7.37 0.07 6.84 0.21 6.29 0.21L6.29 0.21Q5.09 0.21 4.04-0.19 2.99-0.59 2.2-1.36 1.41-2.13 0.95-3.24 0.5-4.35 0.5-5.77L0.5-5.77Q0.5-7.09 0.95-8.2 1.41-9.31 2.2-10.1 2.99-10.9 4.04-11.33 5.09-11.77 6.29-11.77L6.29-11.77Q6.84-11.77 7.38-11.64 7.92-11.5 8.43-11.25 8.94-11.01 9.4-10.68 9.86-10.36 10.26-9.97L10.26-9.97 11.38-11.32 12.08-11.32ZM9.17-5.77L9.17-5.77Q9.17-6.36 8.94-6.92 8.71-7.48 8.32-7.9 7.93-8.33 7.41-8.59 6.88-8.85 6.29-8.85L6.29-8.85Q5.7-8.85 5.17-8.65 4.65-8.45 4.26-8.06 3.88-7.67 3.65-7.09 3.43-6.51 3.43-5.77L3.43-5.77Q3.43-5.03 3.65-4.45 3.88-3.88 4.26-3.48 4.65-3.09 5.17-2.89 5.7-2.69 6.29-2.69L6.29-2.69Q6.88-2.69 7.41-2.95 7.93-3.21 8.32-3.64 8.71-4.07 8.94-4.62 9.17-5.18 9.17-5.77ZM17.17-6.25L17.17 0 14.28 0 14.28-11.34 14.98-11.34 15.93-10Q16.63-10.63 17.52-10.97 18.41-11.32 19.37-11.32L19.37-11.32 21.92-11.32 21.92-8.44 19.37-8.44Q18.91-8.44 18.51-8.27 18.11-8.1 17.81-7.8 17.51-7.51 17.34-7.1 17.17-6.7 17.17-6.25L17.17-6.25ZM34.03-11.32L34.03 4.32 31.12 4.32 31.12-0.76Q30.79-0.57 30.45-0.39 30.1-0.21 29.74-0.07 29.37 0.07 29 0.16 28.62 0.24 28.24 0.24L28.24 0.24Q27.04 0.24 25.99-0.2 24.93-0.64 24.15-1.43 23.36-2.22 22.9-3.33 22.45-4.44 22.45-5.77L22.45-5.77Q22.45-7.12 22.9-8.22 23.36-9.33 24.15-10.11 24.93-10.9 25.99-11.32 27.04-11.75 28.24-11.75L28.24-11.75Q28.79-11.75 29.32-11.61 29.86-11.48 30.37-11.24 30.87-11 31.34-10.67 31.8-10.34 32.21-9.97L32.21-9.97 33.33-11.32 34.03-11.32ZM31.12-5.77L31.12-5.77Q31.12-6.36 30.89-6.92 30.66-7.48 30.27-7.9 29.88-8.33 29.36-8.59 28.83-8.85 28.24-8.85L28.24-8.85Q27.65-8.85 27.12-8.63 26.6-8.42 26.21-8.02 25.82-7.61 25.6-7.05 25.38-6.48 25.38-5.77L25.38-5.77Q25.38-5.04 25.6-4.46 25.82-3.89 26.21-3.49 26.6-3.1 27.12-2.9 27.65-2.69 28.24-2.69L28.24-2.69Q28.83-2.69 29.36-2.95 29.88-3.21 30.27-3.64 30.66-4.07 30.89-4.62 31.12-5.18 31.12-5.77ZM45.52 0L44.56-1.32Q44.22-1.01 43.82-0.73 43.42-0.44 42.99-0.24 42.55-0.03 42.09 0.09 41.63 0.21 41.16 0.21L41.16 0.21Q40.11 0.21 39.19-0.16 38.26-0.53 37.57-1.21 36.88-1.9 36.48-2.87 36.08-3.85 36.08-5.07L36.08-5.07 36.08-11.34 38.96-11.34 38.96-5.07Q38.96-4.5 39.14-4.05 39.31-3.6 39.61-3.29 39.91-2.99 40.3-2.83 40.7-2.67 41.16-2.67L41.16-2.67Q41.6-2.67 42-2.87 42.39-3.08 42.69-3.42 42.99-3.76 43.16-4.19 43.33-4.62 43.33-5.07L43.33-5.07 43.33-11.34 46.22-11.34 46.22 0 45.52 0ZM58.35-9.31L52.93-2.77Q53.1-2.72 53.27-2.71 53.44-2.69 53.61-2.69L53.61-2.69Q54.03-2.69 54.42-2.81 54.81-2.92 55.16-3.14 55.5-3.36 55.77-3.67 56.04-3.98 56.21-4.36L56.21-4.36 58.33-2.23Q57.93-1.66 57.4-1.21 56.88-0.75 56.27-0.43 55.66-0.12 54.99 0.05 54.32 0.21 53.61 0.21L53.61 0.21Q52.41 0.21 51.36-0.23 50.3-0.68 49.51-1.47 48.73-2.27 48.27-3.36 47.82-4.46 47.82-5.77L47.82-5.77Q47.82-7.12 48.27-8.23 48.73-9.34 49.51-10.12 50.3-10.91 51.36-11.34 52.41-11.77 53.61-11.77L53.61-11.77Q54.32-11.77 54.99-11.6 55.67-11.43 56.28-11.12 56.89-10.8 57.42-10.34 57.95-9.88 58.35-9.31L58.35-9.31ZM51.04-4.27L54.41-8.74Q54.21-8.81 54.01-8.83 53.82-8.85 53.61-8.85L53.61-8.85Q53.01-8.85 52.49-8.63 51.97-8.42 51.58-8.02 51.19-7.61 50.97-7.05 50.75-6.48 50.75-5.77L50.75-5.77Q50.75-5.61 50.76-5.41 50.78-5.21 50.82-5 50.85-4.8 50.91-4.61 50.96-4.42 51.04-4.27L51.04-4.27ZM71.15-5.77L71.15-5.77Q71.15-4.44 70.7-3.34 70.24-2.23 69.46-1.45 68.67-0.66 67.62-0.22 66.57 0.21 65.36 0.21L65.36 0.21Q64.16 0.21 63.11-0.23 62.06-0.68 61.27-1.47 60.48-2.27 60.02-3.36 59.57-4.46 59.57-5.77L59.57-5.77 59.57-15.85 62.47-15.85 62.47-10.56Q62.7-10.85 63.04-11.09 63.37-11.32 63.76-11.47 64.14-11.61 64.55-11.69 64.97-11.77 65.36-11.77L65.36-11.77Q66.57-11.77 67.62-11.32 68.67-10.87 69.46-10.07 70.24-9.26 70.7-8.17 71.15-7.07 71.15-5.77ZM68.24-5.77L68.24-5.77Q68.24-6.43 68.01-6.99 67.78-7.56 67.39-7.97 67-8.39 66.48-8.62 65.95-8.85 65.36-8.85L65.36-8.85Q64.77-8.85 64.24-8.59 63.72-8.33 63.33-7.9 62.93-7.48 62.71-6.92 62.49-6.36 62.49-5.77L62.49-5.77Q62.49-5.11 62.71-4.55 62.93-3.99 63.33-3.58 63.72-3.17 64.24-2.93 64.77-2.69 65.36-2.69L65.36-2.69Q65.95-2.69 66.48-2.93 67-3.17 67.39-3.58 67.78-3.99 68.01-4.55 68.24-5.11 68.24-5.77ZM82.04 0L81.08-1.32Q80.73-1.01 80.34-0.73 79.94-0.44 79.5-0.24 79.07-0.03 78.61 0.09 78.15 0.21 77.67 0.21L77.67 0.21Q76.63 0.21 75.7-0.16 74.78-0.53 74.09-1.21 73.4-1.9 73-2.87 72.6-3.85 72.6-5.07L72.6-5.07 72.6-11.34 75.48-11.34 75.48-5.07Q75.48-4.5 75.66-4.05 75.83-3.6 76.13-3.29 76.42-2.99 76.82-2.83 77.22-2.67 77.67-2.67L77.67-2.67Q78.12-2.67 78.51-2.87 78.91-3.08 79.21-3.42 79.5-3.76 79.67-4.19 79.84-4.62 79.84-5.07L79.84-5.07 79.84-11.34 82.73-11.34 82.73 0 82.04 0ZM91.16 0L91.16 0 84.56 0 84.56-2.88 91.16-2.88Q91.46-2.88 91.67-3.09 91.88-3.3 91.88-3.6L91.88-3.6Q91.88-3.91 91.67-4 91.46-4.1 91.16-4.1L91.16-4.1 88.16-4.1Q87.4-4.1 86.75-4.38 86.09-4.67 85.6-5.16 85.12-5.65 84.84-6.31 84.56-6.97 84.56-7.72L84.56-7.72Q84.56-8.47 84.84-9.13 85.12-9.78 85.6-10.27 86.09-10.76 86.75-11.04 87.4-11.32 88.16-11.32L88.16-11.32 94.01-11.32 94.01-8.44 88.16-8.44Q87.86-8.44 87.65-8.23 87.44-8.02 87.44-7.72L87.44-7.72Q87.44-7.41 87.65-7.19 87.86-6.98 88.16-6.98L88.16-6.98 91.16-6.98Q91.9-6.98 92.56-6.73 93.22-6.48 93.7-6.04 94.19-5.59 94.48-4.97 94.76-4.34 94.76-3.6L94.76-3.6Q94.76-2.85 94.48-2.2 94.19-1.55 93.7-1.05 93.22-0.56 92.56-0.28 91.9 0 91.16 0Z" transform="translate(-0.5, 16.350000381469727)" stroke-width="1.3" stroke-linejoin="round" mask="url(#Fz7ylkpvxC7mzFgtRSBDq)"></path></g></g> <g transform="translate(97.26000213623047, 0)"><g><g class="imagesvg"><g><rect fill="#ffffff" fill-opacity="0" stroke-width="2" x="0" y="0" width="27.823544367771948" height="23.62913637062271" class="image-rect"></rect> <svg filter="url(#colors8455019465)" x="0" y="0" width="27.823544367771948" height="23.62913637062271" filtersec="colorsf987038906" class="image-svg-svg primary" style="overflow: visible;"><svg xmlns="http://www.w3.org/2000/svg" xmlns:xlink="http://www.w3.org/1999/xlink" xmlns:xodm="http://www.corel.com/coreldraw/odm/2003" xml:space="preserve" version="1.1" viewBox="63.880340576171875 636.6967163085938 6272.24609375 5326.70263671875" x="0px" y="0px" fill-rule="evenodd" clip-rule="evenodd"><defs></defs><g><path d="M2844.2 3448c1,-32.6 28.9,-59 62,-58.8 33.1,0.2 59.4,27.2 58.4,59.8 -0.8,25.8 -4.4,51.7 -10.8,77 -6.3,25.2 -15.3,49.8 -26.7,73.4 -43.8,89.9 -121.3,159.2 -216.3,193.8 -94.9,34.3 -198.2,30.8 -288.6,-10.2 -22.8,-10.3 -44.6,-23 -64.6,-37.7 -20.1,-14.7 -38.8,-31.3 -55.4,-49.7 -21.7,-24.1 -19,-61.8 5.8,-83.7 25,-22 63.3,-20.3 85.1,3.8 11.2,12.4 23.9,23.8 37.6,33.8 13.7,9.9 28.5,18.5 44,25.5 61.7,28 132,30.6 196.8,7.1 64.6,-23.5 117.1,-70.7 146.9,-131.9 7.9,-16 14.1,-32.7 18.3,-49.9 4.3,-17.2 7,-34.8 7.5,-52.3zm3491.9 -835.4c1.3,-57.7 -44.7,-105.8 -102.3,-107.1l-652.8 -15c-57.6,-1.4 -105.8,44.7 -107.1,102.3 -1.3,57.6 44.7,105.7 102.3,107.1l652.8 14.9c57.5,1.4 105.8,-44.6 107.1,-102.2zm-633.2 -1370.5l0 0c-36.4,-44.6 -102.6,-51.3 -147.2,-14.9l-253 206.5c-44.6,36.4 -51.3,102.7 -14.9,147.3 36.5,44.6 102.8,51.3 147.4,14.9l252.8 -206.4c44.7,-36.5 51.3,-102.8 14.9,-147.4zm-60.9 2602.2l0 0c26.1,-51.4 5.3,-114.7 -46.1,-140.7l-291.3 -147.4c-51.5,-26 -114.7,-5.2 -140.7,46.1 -26,51.5 -5.3,114.8 46.2,140.8l291.2 147.3c51.4,26 114.7,5.3 140.7,-46.1zm-5475.5 -1143.3l652.9 12.8c57.6,1.1 105.6,-45.1 106.7,-102.7 1.2,-57.6 -45,-105.6 -102.6,-106.7l-652.8 -12.8c-57.6,-1.1 -105.7,45 -106.8,102.6 -1.1,57.6 45.1,105.6 102.6,106.8zm545.5 -1311.5l0 0 252.8 206.4c44.7,36.4 110.9,29.7 147.4,-14.9 36.4,-44.6 29.7,-110.9 -14.9,-147.3l-252.9 -206.5c-44.7,-36.4 -110.9,-29.7 -147.4,14.9 -36.4,44.6 -29.7,110.9 15,147.4zm186.7 2500.9l0 0 291.3 -147.3c51.4,-26 72.2,-89.3 46.1,-140.8 -26,-51.3 -89.3,-72.1 -140.7,-46.1l-291.3 147.4c-51.4,26 -72.1,89.3 -46.1,140.7 26,51.4 89.3,72.1 140.7,46.1zm1431.6 521l1680.4 1.5c326.5,0.4 335.4,487.1 8.9,486.6l-1680.3 -1.5c-326.5,-0.4 -335.5,-487.1 -9,-486.6zm493.8 1283.7l680 0c26.3,0 47.7,19.7 47.7,43.8l0 78.6c0,80.2 -71.5,145.9 -159,145.9l-457.4 0c-87.5,0 -159,-65.7 -159,-145.9l0 -78.6c0,-24.1 21.4,-43.8 47.7,-43.8zm-336.7 -613.4l0 0 1353.5 0c51.6,0 93.8,38.7 93.8,86.1l0 304c0,80.2 -71.4,145.8 -158.8,145.8l-1223.6 0c-87.4,0 -158.9,-65.6 -158.9,-145.8l0 -304c0,-47.4 42.3,-86.1 94,-86.1zm989.3 -1633.7c0.5,17.5 3.1,35.1 7.4,52.3 4.3,17.2 10.4,33.9 18.3,49.9 29.8,61.2 82.3,108.4 147,131.9 64.7,23.5 135.1,20.9 196.8,-7.1 15.5,-7 30.3,-15.6 44,-25.5 13.6,-10 26.3,-21.4 37.6,-33.8 21.7,-24.1 60.1,-25.8 85,-3.8 24.9,21.9 27.5,59.6 5.8,83.7 -16.6,18.4 -35.2,35 -55.3,49.7 -20.1,14.7 -41.9,27.4 -64.6,37.7 -90.5,41 -193.8,44.5 -288.6,10.2 -95.1,-34.6 -172.6,-103.9 -216.4,-193.8 -11.3,-23.6 -20.4,-48.2 -26.7,-73.4 -6.3,-25.3 -9.9,-51.2 -10.8,-77 -1,-32.6 25.4,-59.6 58.4,-59.8 33.2,-0.2 61,26.2 62.1,58.8zm763.2 -1270.4l0 0c-33.1,4 -63.6,-19.1 -68.4,-51.7 -4.8,-32.4 18,-62 50.8,-66 50.6,-6.2 107.6,-35.4 141.3,-72.3 36.5,-40 57,-91.5 58.2,-145.9 0.6,-28.8 -4.3,-57.5 -14.4,-84.7 -10.1,-27.2 -25.3,-52.5 -44.8,-74.3 -22,-24.9 -19.9,-62.3 4.8,-83.6 24.8,-21.2 63,-18.2 85.1,6.7 29.6,33.2 52.6,71.5 68,112.8 15.4,41.2 22.9,84.7 22,128.2 -1.6,70.6 -24.7,138 -66.1,193.9 70.7,20.8 134.9,59.9 186,113.4 75.5,79.1 116.2,182.6 114,289.7 -1,46.4 -10.4,92.2 -27.3,135.2 -16.9,43 -41.4,82.8 -72.4,117.2 -21.6,24.3 -59.7,26.2 -84.9,4.4 -25.3,-21.9 -28.1,-59.5 -6.3,-83.8 21.8,-24.3 39.2,-52.2 51.1,-82.6 12.1,-30.4 18.3,-62.9 19.1,-95.6 1.5,-75.5 -27.2,-148.6 -80.4,-204.3 -53.2,-55.6 -125.6,-88.5 -202.5,-91.7 -5.5,-0.3 -11.1,-0.4 -16.7,-0.4 -36.3,18.4 -75.5,30.3 -116.2,35.4zm-684.1 -1127.2l0 0c-29,-39 -64.1,-73.5 -103.6,-102.1 -27.1,-19.6 -33.4,-56.8 -14.1,-83 19.3,-26.1 57,-31.5 84.1,-11.9 49.8,36.1 93.9,79.5 130.4,128.7 36.5,49.1 65.1,103.4 84.7,160.8 10.6,31.2 -6.2,64.5 -37.7,74.3 -31.5,9.8 -65.8,-7.6 -76.4,-38.8 -15.6,-45.6 -38.5,-88.9 -67.4,-128zm331.7 2170.1l0 0c-28.4,-1.2 -56.7,-5.4 -84.3,-12.3 -27.7,-7 -54.6,-16.8 -80.1,-29.1 -30.1,-14.4 -43.3,-50.1 -29.3,-79.3 13.9,-29.3 50,-41.5 80.1,-27 18.2,8.7 37.3,15.7 56.7,20.5 19.5,4.9 39.4,7.8 59.4,8.7 76.5,3.1 149.6,-23.2 204.8,-74 55.2,-50.8 86.7,-120.8 88.4,-195.9 0.3,-18.9 -1.1,-37.9 -4.5,-56.7 -3.4,-18.6 -8.8,-37 -16,-54.7 -12.2,-30.5 2.7,-64.9 33.5,-76.3 30.8,-11.4 66,4.2 78.4,34.7 10.2,25.2 17.7,51.3 22.6,77.8 4.9,26.5 7.2,53.5 6.6,80.4 -1.5,74 -23.7,145.1 -64.1,206.3 35.7,48.2 64.3,101.1 84.6,157.2 25.3,69.9 37.5,143.6 35.9,217.1 -0.3,13.4 -1.1,26.8 -2.2,40.2 -1.3,13.5 -2.9,26.8 -5.1,40 -5,32.2 -35.8,53.6 -68.7,47.8 -32.9,-5.7 -55.4,-36.5 -50.3,-68.7 1.7,-10.6 3,-21.4 4,-32.1 0.9,-10.8 1.5,-21.6 1.7,-32.3 1.2,-59.2 -8.5,-118.4 -28.9,-174.6 -13.3,-36.9 -31.2,-72.2 -52.9,-105.1 -75.8,60.7 -171.2,91.6 -270.3,87.4zm243.3 -1557.6l0 0c-1.3,59.2 -18.7,116.6 -50.5,166.3 -31.8,49.8 -76.7,89.8 -130.2,116.2 -29.4,14.5 -65.9,2.4 -81.2,-26.9 -15.5,-29.4 -4,-64.8 25.4,-79.3 34.3,-17 63.1,-42.7 83.5,-74.6 20.4,-31.9 31.5,-68.8 32.3,-106.9 1.1,-56.5 -20.3,-111.2 -60.2,-153 -39.9,-41.8 -94.2,-66.3 -151.8,-68.8 -37.9,-1.6 -75.2,6.4 -108.5,23.6 -33.2,17.1 -61.1,42.6 -80.7,74 -17.3,27.4 -54.4,35.5 -82.7,18 -28.4,-17.6 -37.5,-54.4 -20.3,-81.9 30.7,-48.9 74.2,-88.5 125.9,-115.2 51.7,-26.6 109.9,-39.5 168.8,-37 74.4,3.2 145.4,30.1 203.1,76.5 9.4,-14 17.6,-28.8 24.3,-44.4 13.6,-31.7 21,-66 21.7,-100.7 0,-2.6 0.1,-5.2 0.2,-7.8 0,-32.7 27,-58.5 60.3,-57.8 33.2,0.8 60.1,27.9 60.1,60.6 0,3.5 0.1,6.7 0,10.1 -1,49.5 -11.6,98.3 -31.1,143.7 -13.9,32.3 -32.3,62.7 -54.5,90 31.5,53.4 47.3,113.9 46.1,175.3zm-887.5 -931.3l0 0 0.1 117.1c0.1,31.7 13.5,59.3 38.8,79.6 5.9,4.8 11.7,9.7 17.3,14.9 24.4,22.5 26.2,60.2 4,83.7 -3.6,3.9 -7.8,7.1 -12.1,9.7 -30.6,18.4 -47.6,48.6 -47.6,84.2l0.2 113c0,47.8 32.9,88.8 80.4,100.1 16.5,4 31.3,14.6 40,30.5 15.9,29 5.2,64.8 -24.1,79.8 -32.9,16.9 -60.6,41.9 -80.4,72.8 -10.6,16.5 -15.5,33.3 -15.5,53l0.2 118.3c0,19.8 5,36.9 15.7,53.9 7.8,12.4 16.9,24.1 27.3,34.9 39.8,41.8 94,66.5 151.7,68.9 26.9,1.1 53.8,-2.6 79.1,-11.1 25.3,-8.7 48.7,-21.9 68.9,-39 24.9,-21.1 63.1,-17.9 85.1,7.1 22,24.9 19.6,62.4 -5.3,83.5 -31.4,26.6 -67.8,47.2 -107.2,60.5 -39.4,13.3 -81.2,19.3 -123.2,17.5 -22.6,-0.9 -45,-4.1 -66.7,-9.4 -31.4,-7.5 -61.4,-1.4 -86.6,17.9 -25.1,19.2 -38.4,46.2 -38.3,77.9l0.6 449.2c0,39.1 21.2,73.1 56.9,91.4 20.3,10.3 34,31.4 33.5,55.1 -1.2,56.4 -23.3,109.3 -62.3,149.4 -18.4,19 -27.7,41.8 -27.7,68.4l0.2 144.8c0.1,14.1 6.8,26.4 18.9,34.3 12,7.8 26.1,9.2 39.2,3.7 30.2,-12.9 58.2,-31 82.5,-53.9 53.8,-50.6 84.5,-119.9 86.1,-193.9l12.9 -611.9c0.3,-18 8.6,-34.2 22.9,-44.8 25.7,-22 55.7,-39 88.7,-50.4 33.7,-11.7 69.7,-17.1 105.9,-15.5 75.7,3.2 147.2,35.6 199.7,90.5 43.7,45.7 70.7,103.4 77.6,164.4 34.3,-8.8 69.9,-12.8 105.6,-11.9 25.2,0.7 50.6,3.8 75.3,9.5 24.8,5.6 49.1,13.6 72.4,24 30.4,13.5 44.6,48.9 31.5,78.5 -13,29.7 -48.7,42.9 -79.1,29.3 -15.8,-7 -32.3,-12.6 -49.2,-16.5 -16.9,-3.7 -34.2,-6 -51.5,-6.4 -25,-0.7 -50,2.4 -73.9,8.8 -17,4.5 -33.3,10.8 -48.9,18.6 -4.1,10.3 -8.9,20.2 -14.2,29.8 -21.2,38.7 -51.8,71.3 -89,95.4 -3.3,2.1 -5.5,4.4 -8,7 -1.5,2 -2.6,4.1 -3.5,6.2 -3,6.6 -5.4,13.6 -7.1,20.7 -1.6,7.1 -2.4,14.5 -2.5,21.7 -0.6,25.4 7.7,50.3 23.7,70.8 15.9,20.4 38.3,34.8 63.5,41 32.3,8 52.7,40.2 45.5,71.8 -7.4,31.7 -39.7,51 -72.1,43 -52.4,-12.7 -98.8,-42.7 -131.8,-85.1 -33.2,-42.4 -50.6,-93.9 -49.5,-146.7 0.3,-15.1 2.3,-30.1 5.7,-44.7 3.3,-14.7 8.1,-29.1 14.3,-42.8 5.3,-11.7 11.9,-22.4 20,-32.3 0.8,-1 1.7,-2.1 2.9,-3.4 8.6,-10 19.3,-19 31,-26.7 21.2,-13.7 38.5,-32.3 50.5,-54.2 3.5,-6.2 6.6,-12.8 9.2,-19.5 0.7,-6.9 2.7,-13.5 6,-19.7 2.5,-11.2 4,-22.7 4.2,-34.2 1,-43 -15.4,-84.4 -45.6,-116.2 -30.4,-31.7 -71.5,-50.4 -115.2,-52.2 -20.9,-0.9 -41.7,2 -61.3,8.8 -11.8,4 -23.1,9.5 -33.7,16.3l-12.4 584.2c-2.2,105.2 -46,203.3 -122.3,275.3 -54,50.7 -120.7,84.9 -192.8,99.7 -18.8,3.9 -31.7,19.7 -31.7,38.7l0.7 584.7c0.5,376.1 763.6,543.1 1001.8,-87.4 223.8,-2.2 432.6,-286.5 437.1,-502.7 0.9,-37.9 -2.7,-75.4 -10.2,-112.2 -5,-24.7 -11.9,-48.8 -20.3,-72.2 427.8,-207.8 507.9,-755.5 85.3,-1070 10.7,-27.7 19.2,-56.4 25.8,-85.8 8.7,-39.2 13.7,-79.7 14.6,-121.2 3.6,-174.5 -65.1,-335.7 -179.1,-455 -107.6,-112.8 -255.8,-188.3 -421.5,-202.7 -15.4,-96.3 -63,-183 -131.7,-248.4 -76.3,-72.7 -178.7,-119.4 -292,-124.3 -45.7,-1.9 -90.2,3.2 -132.1,14.3 -8.6,2.3 -17.1,4.8 -25.5,7.5 -42.5,14.2 -86.5,5.6 -121.3,-23.3 -26.9,-22.5 -55.7,-43 -86.2,-61.1 -82.3,-48.8 -148.9,-11.9 -148.8,73.1zm-1278.5 1410.6l0 0c-5.6,0 -11.2,0.1 -16.8,0.4 -76.9,3.2 -149.2,36.1 -202.5,91.7 -53.2,55.7 -81.9,128.8 -80.3,204.3 0.7,32.7 7,65.2 19,95.6 11.9,30.4 29.3,58.3 51.2,82.6 21.7,24.3 19,61.9 -6.3,83.8 -25.2,21.8 -63.3,19.9 -85,-4.4 -30.9,-34.4 -55.4,-74.2 -72.4,-117.2 -16.9,-43 -26.2,-88.8 -27.2,-135.2 -2.2,-107.1 38.5,-210.6 114,-289.7 51.1,-53.5 115.3,-92.6 186,-113.4 -41.5,-55.9 -64.6,-123.3 -66.1,-193.9 -0.9,-43.5 6.6,-87 22,-128.2 15.3,-41.3 38.4,-79.6 67.9,-112.8 22.2,-24.9 60.3,-27.9 85.2,-6.7 24.7,21.3 26.8,58.7 4.7,83.6 -19.4,21.8 -34.7,47.1 -44.8,74.3 -10.1,27.2 -14.9,55.9 -14.3,84.7 1.1,54.4 21.6,105.9 58.2,145.9 33.7,36.9 90.7,66.1 141.2,72.3 32.9,4 55.6,33.6 50.9,66 -4.8,32.6 -35.4,55.7 -68.4,51.7 -40.7,-5.1 -80,-17 -116.2,-35.4zm732.9 -963.8l0 0c-10.7,31.2 -45,48.6 -76.4,38.8 -31.6,-9.8 -48.4,-43.1 -37.8,-74.3 19.7,-57.4 48.3,-111.7 84.8,-160.8 36.5,-49.2 80.5,-92.6 130.4,-128.7 27.1,-19.6 64.8,-14.2 84.1,11.9 19.2,26.2 13,63.4 -14.1,83 -39.6,28.6 -74.6,63.1 -103.6,102.1 -29,39.1 -51.8,82.4 -67.4,128zm-534.7 1954.7l0 0c-21.7,32.9 -39.5,68.2 -52.8,105.1 -20.4,56.2 -30.1,115.4 -28.9,174.6 0.2,10.7 0.8,21.5 1.7,32.3 1,10.7 2.2,21.5 4,32.1 5.1,32.2 -17.5,63 -50.3,68.7 -32.9,5.8 -63.7,-15.6 -68.8,-47.8 -2.1,-13.2 -3.8,-26.5 -5,-40 -1.2,-13.4 -2,-26.8 -2.3,-40.2 -1.5,-73.5 10.7,-147.2 36,-217.1 20.3,-56.1 48.9,-109 84.6,-157.2 -40.5,-61.2 -62.6,-132.3 -64.1,-206.3 -0.6,-26.9 1.6,-53.9 6.5,-80.4 5,-26.5 12.5,-52.6 22.7,-77.8 12.3,-30.5 47.6,-46.1 78.4,-34.7 30.7,11.4 45.7,45.8 33.4,76.3 -7.1,17.7 -12.5,36.1 -15.9,54.7 -3.5,18.8 -4.9,37.8 -4.6,56.7 1.7,75.1 33.3,145.1 88.4,195.9 55.3,50.8 128.4,77.1 204.9,74 20,-0.9 39.9,-3.8 59.4,-8.7 19.4,-4.8 38.5,-11.8 56.6,-20.5 30.1,-14.5 66.2,-2.3 80.2,27 13.9,29.2 0.7,64.9 -29.3,79.3 -25.6,12.3 -52.5,22.1 -80.2,29.1 -27.5,6.9 -55.9,11.1 -84.3,12.3 -99.1,4.2 -194.5,-26.7 -270.3,-87.4zm73.2 -1645.5l0 0c-22.3,-27.3 -40.6,-57.7 -54.5,-90 -19.5,-45.4 -30.2,-94.2 -31.2,-143.7 -0.1,-3.4 0,-6.6 0.1,-10.1 -0.1,-32.7 26.8,-59.8 60.1,-60.6 33.2,-0.7 60.3,25.1 60.3,57.8 0,2.6 0.2,5.2 0.2,7.8 0.7,34.7 8,69 21.6,100.7 6.8,15.6 15,30.4 24.4,44.4 57.7,-46.4 128.6,-73.3 203,-76.5 58.9,-2.5 117.1,10.4 168.8,37 51.8,26.7 95.2,66.3 126,115.2 17.2,27.5 8.1,64.3 -20.3,81.9 -28.3,17.5 -65.5,9.4 -82.8,-18 -19.6,-31.4 -47.4,-56.9 -80.7,-74 -33.2,-17.2 -70.6,-25.2 -108.5,-23.6 -57.5,2.5 -111.8,27 -151.7,68.8 -39.9,41.8 -61.4,96.5 -60.2,153 0.8,38.1 11.9,75 32.2,106.9 20.4,31.9 49.2,57.6 83.6,74.6 29.3,14.5 40.9,49.9 25.4,79.3 -15.4,29.3 -51.8,41.4 -81.3,26.9 -53.5,-26.4 -98.4,-66.4 -130.1,-116.2 -31.8,-49.7 -49.2,-107.1 -50.5,-166.3 -1.3,-61.4 14.6,-121.9 46.1,-175.3zm692.5 -829.1l0 0c-30.5,18.1 -59.2,38.6 -86.2,61.1 -34.8,28.9 -78.8,37.5 -121.3,23.3 -8.3,-2.7 -16.8,-5.2 -25.4,-7.5 -42,-11.1 -86.4,-16.2 -132.2,-14.3 -113.3,4.9 -215.6,51.6 -292,124.3 -68.7,65.4 -116.2,152.1 -131.6,248.4 -165.8,14.4 -313.9,89.9 -421.5,202.7 -114.1,119.3 -182.8,280.5 -179.2,455 1,41.5 6,82 14.6,121.2 6.6,29.4 15.2,58.1 25.8,85.8 -422.5,314.5 -342.4,862.2 85.4,1070 -8.5,23.4 -15.4,47.5 -20.4,72.2 -7.4,36.8 -11,74.3 -10.1,112.2 4.5,216.2 213.2,500.5 437,502.7 238.3,630.5 1001.3,463.5 1001.8,87.4l0.8 -584.7c0,-19 -12.9,-34.8 -31.8,-38.7 -72.1,-14.8 -138.8,-49 -192.7,-99.7 -76.4,-72 -120.2,-170.1 -122.4,-275.3l-12.3 -584.2c-10.6,-6.8 -21.9,-12.3 -33.7,-16.3 -19.7,-6.8 -40.5,-9.7 -61.3,-8.8 -43.8,1.8 -84.9,20.5 -115.2,52.2 -30.3,31.8 -46.7,73.2 -45.7,116.2 0.3,11.5 1.7,23 4.3,34.2 3.2,6.2 5.2,12.8 6,19.7 2.6,6.7 5.6,13.3 9.1,19.5 12.1,21.9 29.3,40.5 50.5,54.2 11.8,7.7 22.5,16.7 31,26.7 1.2,1.3 2.2,2.4 2.9,3.4 8.2,9.9 14.7,20.6 20.1,32.3 6.2,13.7 10.9,28.1 14.3,42.8 3.4,14.6 5.3,29.6 5.6,44.7 1.2,52.8 -16.2,104.3 -49.4,146.7 -33,42.4 -79.4,72.4 -131.8,85.1 -32.5,8 -64.8,-11.3 -72.1,-43 -7.3,-31.6 13.2,-63.8 45.5,-71.8 25.2,-6.2 47.5,-20.6 63.5,-41 15.9,-20.5 24.3,-45.4 23.7,-70.8 -0.2,-7.2 -1,-14.6 -2.5,-21.7 -1.7,-7.1 -4.2,-14.1 -7.2,-20.7 -0.9,-2.1 -2,-4.2 -3.4,-6.2 -2.5,-2.6 -4.7,-4.9 -8,-7 -37.2,-24.1 -67.8,-56.7 -89.1,-95.4 -5.3,-9.6 -10,-19.5 -14.1,-29.8 -15.7,-7.8 -32,-14.1 -49,-18.6 -23.9,-6.4 -48.9,-9.5 -73.8,-8.8 -17.4,0.4 -34.7,2.7 -51.5,6.4 -16.9,3.9 -33.4,9.5 -49.3,16.5 -30.4,13.6 -66,0.4 -79.1,-29.3 -13,-29.6 1.2,-65 31.6,-78.5 23.2,-10.4 47.5,-18.4 72.3,-24 24.8,-5.7 50.1,-8.8 75.4,-9.5 35.7,-0.9 71.2,3.1 105.6,11.9 6.8,-61 33.9,-118.7 77.5,-164.4 52.5,-54.9 124,-87.3 199.8,-90.5 36.1,-1.6 72.1,3.8 105.8,15.5 33,11.4 63.1,28.4 88.7,50.4 14.4,10.6 22.6,26.8 22.9,44.8l13 611.9c1.5,74 32.2,143.3 86.1,193.9 24.3,22.9 52.2,41 82.5,53.9 13.1,5.5 27.1,4.1 39.2,-3.7 12,-7.9 18.8,-20.2 18.8,-34.3l0.2 -144.8c0,-26.6 -9.2,-49.4 -27.7,-68.4 -38.9,-40.1 -61.1,-93 -62.3,-149.4 -0.5,-23.7 13.3,-44.8 33.6,-55.1 35.6,-18.3 56.8,-52.3 56.9,-91.4l0.6 -449.2c0,-31.7 -13.3,-58.7 -38.4,-77.9 -25.1,-19.3 -55.1,-25.4 -86.5,-17.9 -21.8,5.3 -44.1,8.5 -66.8,9.4 -41.9,1.8 -83.8,-4.2 -123.2,-17.5 -39.4,-13.3 -75.8,-33.9 -107.2,-60.5 -24.8,-21.1 -27.3,-58.6 -5.2,-83.5 21.9,-25 60.1,-28.2 85,-7.1 20.2,17.1 43.6,30.3 68.9,39 25.3,8.5 52.2,12.2 79.2,11.1 57.6,-2.4 111.8,-27.1 151.7,-68.9 10.3,-10.8 19.5,-22.5 27.3,-34.9 10.7,-17 15.7,-34.1 15.7,-53.9l0.1 -118.3c0.1,-19.7 -4.8,-36.5 -15.4,-53 -19.8,-30.9 -47.5,-55.9 -80.4,-72.8 -29.3,-15 -40.1,-50.8 -24.1,-79.8 8.6,-15.9 23.5,-26.5 40,-30.5 47.4,-11.3 80.4,-52.3 80.4,-100.1l0.2 -113c0,-35.6 -17.1,-65.8 -47.6,-84.2 -4.3,-2.6 -8.5,-5.8 -12.1,-9.7 -22.2,-23.5 -20.5,-61.2 4,-83.7 5.6,-5.2 11.4,-10.1 17.3,-14.9 25.3,-20.3 38.7,-47.9 38.8,-79.6l0.1 -117.1c0.1,-85 -66.5,-121.9 -148.9,-73.1z"></path></g></svg></svg> <defs><filter id="colors8455019465"><feColorMatrix type="matrix" values="0 0 0 0 0  0 0 0 0 0  0 0 0 0 0  0 0 0 1 0" class="icon-feColorMatrix "></feColorMatrix></filter> <filter id="colorsf987038906"><feColorMatrix type="matrix" values="0 0 0 0 0.99609375  0 0 0 0 0.99609375  0 0 0 0 0.99609375  0 0 0 1 0" class="icon-fecolormatrix"></feColorMatrix></filter> <filter id="colorsb1212812465"><feColorMatrix type="matrix" values="0 0 0 0 0  0 0 0 0 0  0 0 0 0 0  0 0 0 1 0" class="icon-fecolormatrix"></feColorMatrix></filter></defs></g></g></g></g> <g stroke="#ffffff" fill="#ffffff" transform="translate(128.08354568481445, 1.4690372934400031)"><g transform="scale(1)"><path d="M4.51-14.42L4.51-14.42Q4.51-14.02 4.36-13.67 4.2-13.32 3.94-13.06 3.67-12.8 3.32-12.65 2.96-12.49 2.56-12.49L2.56-12.49Q2.16-12.49 1.81-12.65 1.45-12.8 1.19-13.06 0.93-13.32 0.78-13.67 0.62-14.02 0.62-14.42L0.62-14.42Q0.62-14.81 0.78-15.17 0.93-15.52 1.19-15.78 1.45-16.04 1.81-16.19 2.16-16.35 2.56-16.35L2.56-16.35Q2.96-16.35 3.32-16.19 3.67-16.04 3.94-15.78 4.2-15.52 4.36-15.17 4.51-14.81 4.51-14.42ZM4.01-11.34L4.01 0 1.1 0 1.1-11.34 4.01-11.34ZM9.11-6.48L9.11 0 6.22 0 6.22-11.34 6.91-11.34 7.87-10.24Q8.57-10.87 9.45-11.22 10.33-11.56 11.3-11.56L11.3-11.56Q12.33-11.56 13.26-11.16 14.18-10.77 14.87-10.07 15.55-9.38 15.95-8.45 16.35-7.53 16.35-6.48L16.35-6.48 16.35 0 13.46 0 13.46-6.48Q13.46-6.92 13.29-7.32 13.12-7.72 12.82-8.02 12.53-8.31 12.13-8.48 11.74-8.65 11.3-8.65L11.3-8.65Q10.84-8.65 10.44-8.48 10.04-8.31 9.74-8.02 9.44-7.72 9.28-7.32 9.11-6.92 9.11-6.48L9.11-6.48ZM26.13 0L23.94 0Q22.89 0 21.97-0.4 21.05-0.79 20.36-1.49 19.66-2.18 19.26-3.1 18.87-4.02 18.87-5.07L18.87-5.07 18.87-8.44 17.46-8.44 17.46-11.32 18.87-11.32 18.87-15.85 21.75-15.85 21.75-11.32 26.13-11.32 26.13-8.44 21.75-8.44 21.75-5.07Q21.75-4.62 21.92-4.22 22.09-3.82 22.38-3.53 22.68-3.23 23.08-3.05 23.48-2.88 23.94-2.88L23.94-2.88 26.13-2.88 26.13 0ZM37.68-9.31L32.26-2.77Q32.43-2.72 32.6-2.71 32.77-2.69 32.94-2.69L32.94-2.69Q33.36-2.69 33.75-2.81 34.15-2.92 34.49-3.14 34.83-3.36 35.1-3.67 35.37-3.98 35.54-4.36L35.54-4.36 37.66-2.23Q37.26-1.66 36.73-1.21 36.21-0.75 35.6-0.43 34.99-0.12 34.32 0.05 33.65 0.21 32.94 0.21L32.94 0.21Q31.74 0.21 30.69-0.23 29.64-0.68 28.85-1.47 28.06-2.27 27.6-3.36 27.15-4.46 27.15-5.77L27.15-5.77Q27.15-7.12 27.6-8.23 28.06-9.34 28.85-10.12 29.64-10.91 30.69-11.34 31.74-11.77 32.94-11.77L32.94-11.77Q33.65-11.77 34.33-11.6 35-11.43 35.61-11.12 36.22-10.8 36.75-10.34 37.28-9.88 37.68-9.31L37.68-9.31ZM30.38-4.27L33.74-8.74Q33.54-8.81 33.35-8.83 33.15-8.85 32.94-8.85L32.94-8.85Q32.35-8.85 31.82-8.63 31.3-8.42 30.91-8.02 30.53-7.61 30.3-7.05 30.08-6.48 30.08-5.77L30.08-5.77Q30.08-5.61 30.1-5.41 30.11-5.21 30.15-5 30.19-4.8 30.24-4.61 30.29-4.42 30.38-4.27L30.38-4.27ZM42.04-15.85L42.04 0 39.13 0 39.13-15.85 42.04-15.85ZM47.16-15.85L47.16 0 44.25 0 44.25-15.85 47.16-15.85ZM52.77-14.42L52.77-14.42Q52.77-14.02 52.62-13.67 52.46-13.32 52.2-13.06 51.93-12.8 51.58-12.65 51.22-12.49 50.82-12.49L50.82-12.49Q50.42-12.49 50.07-12.65 49.71-12.8 49.45-13.06 49.19-13.32 49.04-13.67 48.88-14.02 48.88-14.42L48.88-14.42Q48.88-14.81 49.04-15.17 49.19-15.52 49.45-15.78 49.71-16.04 50.07-16.19 50.42-16.35 50.82-16.35L50.82-16.35Q51.22-16.35 51.58-16.19 51.93-16.04 52.2-15.78 52.46-15.52 52.62-15.17 52.77-14.81 52.77-14.42ZM52.27-11.34L52.27 0 49.36 0 49.36-11.34 52.27-11.34ZM62.54-5.77L62.54-5.77Q62.54-6.36 62.32-6.92 62.09-7.48 61.7-7.9 61.3-8.33 60.78-8.59 60.26-8.85 59.66-8.85L59.66-8.85Q59.07-8.85 58.55-8.65 58.02-8.45 57.64-8.06 57.25-7.67 57.03-7.09 56.8-6.51 56.8-5.77L56.8-5.77Q56.8-5.06 57.03-4.49 57.25-3.93 57.64-3.53 58.02-3.12 58.55-2.91 59.07-2.69 59.66-2.69L59.66-2.69Q60.26-2.69 60.78-2.95 61.3-3.21 61.7-3.64 62.09-4.07 62.32-4.62 62.54-5.18 62.54-5.77ZM65.45-11.32L65.45-1.43Q65.45-0.23 65 0.82 64.54 1.86 63.76 2.65 62.97 3.43 61.91 3.89 60.86 4.34 59.66 4.34L59.66 4.34 58.21 4.32 58.21 1.43 59.64 1.45Q60.32 1.45 60.8 1.28 61.27 1.1 61.6 0.8 61.93 0.5 62.12 0.11 62.32-0.29 62.44-0.72L62.44-0.72Q62.27-0.44 61.95-0.27 61.63-0.1 61.25 0.02 60.86 0.13 60.44 0.17 60.02 0.21 59.66 0.21L59.66 0.21Q58.47 0.21 57.41-0.2 56.36-0.61 55.57-1.38 54.78-2.15 54.33-3.26 53.87-4.37 53.87-5.77L53.87-5.77Q53.87-7.05 54.33-8.15 54.78-9.25 55.57-10.06 56.36-10.86 57.41-11.32 58.47-11.77 59.66-11.77L59.66-11.77Q60.21-11.77 60.75-11.64 61.29-11.5 61.8-11.25 62.31-11.01 62.77-10.68 63.23-10.36 63.63-9.97L63.63-9.97 64.76-11.32 65.45-11.32ZM77.59-9.31L72.17-2.77Q72.34-2.72 72.51-2.71 72.68-2.69 72.85-2.69L72.85-2.69Q73.27-2.69 73.66-2.81 74.05-2.92 74.4-3.14 74.74-3.36 75.01-3.67 75.28-3.98 75.45-4.36L75.45-4.36 77.57-2.23Q77.17-1.66 76.64-1.21 76.12-0.75 75.51-0.43 74.9-0.12 74.23 0.05 73.55 0.21 72.85 0.21L72.85 0.21Q71.65 0.21 70.6-0.23 69.54-0.68 68.75-1.47 67.96-2.27 67.51-3.36 67.05-4.46 67.05-5.77L67.05-5.77Q67.05-7.12 67.51-8.23 67.96-9.34 68.75-10.12 69.54-10.91 70.6-11.34 71.65-11.77 72.85-11.77L72.85-11.77Q73.55-11.77 74.23-11.6 74.91-11.43 75.52-11.12 76.13-10.8 76.66-10.34 77.19-9.88 77.59-9.31L77.59-9.31ZM70.28-4.27L73.65-8.74Q73.45-8.81 73.25-8.83 73.06-8.85 72.85-8.85L72.85-8.85Q72.25-8.85 71.73-8.63 71.2-8.42 70.82-8.02 70.43-7.61 70.21-7.05 69.99-6.48 69.99-5.77L69.99-5.77Q69.99-5.61 70-5.41 70.02-5.21 70.06-5 70.09-4.8 70.15-4.61 70.2-4.42 70.28-4.27L70.28-4.27ZM81.93-6.48L81.93 0 79.04 0 79.04-11.34 79.74-11.34 80.69-10.24Q81.39-10.87 82.27-11.22 83.16-11.56 84.12-11.56L84.12-11.56Q85.16-11.56 86.08-11.16 87-10.77 87.69-10.07 88.38-9.38 88.77-8.45 89.17-7.53 89.17-6.48L89.17-6.48 89.17 0 86.28 0 86.28-6.48Q86.28-6.92 86.11-7.32 85.94-7.72 85.65-8.02 85.35-8.31 84.96-8.48 84.57-8.65 84.12-8.65L84.12-8.65Q83.67-8.65 83.26-8.48 82.86-8.31 82.56-8.02 82.27-7.72 82.1-7.32 81.93-6.92 81.93-6.48L81.93-6.48ZM101.14-9.08L101.14-9.08 99.02-6.96Q98.86-7.4 98.58-7.76 98.31-8.11 97.97-8.35 97.62-8.6 97.22-8.72 96.82-8.85 96.39-8.85L96.39-8.85Q95.8-8.85 95.28-8.61 94.75-8.36 94.37-7.93 93.98-7.49 93.76-6.88 93.53-6.28 93.53-5.55L93.53-5.55Q93.53-4.96 93.76-4.44 93.98-3.92 94.37-3.53 94.75-3.13 95.28-2.91 95.8-2.69 96.39-2.69L96.39-2.69Q96.82-2.69 97.21-2.81 97.6-2.92 97.94-3.14 98.29-3.36 98.56-3.67 98.83-3.98 99-4.36L99-4.36 101.11-2.23Q100.71-1.66 100.19-1.21 99.66-0.75 99.06-0.43 98.45-0.12 97.77 0.05 97.1 0.21 96.39 0.21L96.39 0.21Q95.2 0.21 94.14-0.24 93.09-0.69 92.3-1.47 91.51-2.26 91.06-3.3 90.6-4.35 90.6-5.55L90.6-5.55Q90.6-6.85 91.06-7.98 91.51-9.12 92.3-9.96 93.09-10.8 94.14-11.29 95.2-11.77 96.39-11.77L96.39-11.77Q97.1-11.77 97.79-11.59 98.47-11.41 99.09-11.07 99.71-10.73 100.23-10.23 100.75-9.73 101.14-9.08ZM112.31-9.31L106.89-2.77Q107.05-2.72 107.22-2.71 107.39-2.69 107.56-2.69L107.56-2.69Q107.99-2.69 108.38-2.81 108.77-2.92 109.11-3.14 109.46-3.36 109.73-3.67 110-3.98 110.17-4.36L110.17-4.36 112.29-2.23Q111.88-1.66 111.36-1.21 110.83-0.75 110.23-0.43 109.62-0.12 108.94 0.05 108.27 0.21 107.56 0.21L107.56 0.21Q106.37 0.21 105.31-0.23 104.26-0.68 103.47-1.47 102.68-2.27 102.23-3.36 101.77-4.46 101.77-5.77L101.77-5.77Q101.77-7.12 102.23-8.23 102.68-9.34 103.47-10.12 104.26-10.91 105.31-11.34 106.37-11.77 107.56-11.77L107.56-11.77Q108.27-11.77 108.95-11.6 109.63-11.43 110.24-11.12 110.85-10.8 111.37-10.34 111.9-9.88 112.31-9.31L112.31-9.31ZM105-4.27L108.37-8.74Q108.17-8.81 107.97-8.83 107.77-8.85 107.56-8.85L107.56-8.85Q106.97-8.85 106.45-8.63 105.92-8.42 105.54-8.02 105.15-7.61 104.93-7.05 104.7-6.48 104.7-5.77L104.7-5.77Q104.7-5.61 104.72-5.41 104.74-5.21 104.77-5 104.81-4.8 104.86-4.61 104.92-4.42 105-4.27L105-4.27Z" transform="translate(-0.6200000047683716, 16.350000381469727)" stroke-width="1.3" stroke-linejoin="round" mask="url(#cg9HptVaNCBwLtKIa7xHK)"></path></g></g></g> </g><mask id="Fz7ylkpvxC7mzFgtRSBDq"><path d="M12.08-11.32L12.08 0 11.38 0 10.26-1.56Q9.85-1.19 9.39-0.86 8.93-0.54 8.42-0.3 7.91-0.06 7.37 0.07 6.84 0.21 6.29 0.21L6.29 0.21Q5.09 0.21 4.04-0.19 2.99-0.59 2.2-1.36 1.41-2.13 0.95-3.24 0.5-4.35 0.5-5.77L0.5-5.77Q0.5-7.09 0.95-8.2 1.41-9.31 2.2-10.1 2.99-10.9 4.04-11.33 5.09-11.77 6.29-11.77L6.29-11.77Q6.84-11.77 7.38-11.64 7.92-11.5 8.43-11.25 8.94-11.01 9.4-10.68 9.86-10.36 10.26-9.97L10.26-9.97 11.38-11.32 12.08-11.32ZM9.17-5.77L9.17-5.77Q9.17-6.36 8.94-6.92 8.71-7.48 8.32-7.9 7.93-8.33 7.41-8.59 6.88-8.85 6.29-8.85L6.29-8.85Q5.7-8.85 5.17-8.65 4.65-8.45 4.26-8.06 3.88-7.67 3.65-7.09 3.43-6.51 3.43-5.77L3.43-5.77Q3.43-5.03 3.65-4.45 3.88-3.88 4.26-3.48 4.65-3.09 5.17-2.89 5.7-2.69 6.29-2.69L6.29-2.69Q6.88-2.69 7.41-2.95 7.93-3.21 8.32-3.64 8.71-4.07 8.94-4.62 9.17-5.18 9.17-5.77ZM17.17-6.25L17.17 0 14.28 0 14.28-11.34 14.98-11.34 15.93-10Q16.63-10.63 17.52-10.97 18.41-11.32 19.37-11.32L19.37-11.32 21.92-11.32 21.92-8.44 19.37-8.44Q18.91-8.44 18.51-8.27 18.11-8.1 17.81-7.8 17.51-7.51 17.34-7.1 17.17-6.7 17.17-6.25L17.17-6.25ZM34.03-11.32L34.03 4.32 31.12 4.32 31.12-0.76Q30.79-0.57 30.45-0.39 30.1-0.21 29.74-0.07 29.37 0.07 29 0.16 28.62 0.24 28.24 0.24L28.24 0.24Q27.04 0.24 25.99-0.2 24.93-0.64 24.15-1.43 23.36-2.22 22.9-3.33 22.45-4.44 22.45-5.77L22.45-5.77Q22.45-7.12 22.9-8.22 23.36-9.33 24.15-10.11 24.93-10.9 25.99-11.32 27.04-11.75 28.24-11.75L28.24-11.75Q28.79-11.75 29.32-11.61 29.86-11.48 30.37-11.24 30.87-11 31.34-10.67 31.8-10.34 32.21-9.97L32.21-9.97 33.33-11.32 34.03-11.32ZM31.12-5.77L31.12-5.77Q31.12-6.36 30.89-6.92 30.66-7.48 30.27-7.9 29.88-8.33 29.36-8.59 28.83-8.85 28.24-8.85L28.24-8.85Q27.65-8.85 27.12-8.63 26.6-8.42 26.21-8.02 25.82-7.61 25.6-7.05 25.38-6.48 25.38-5.77L25.38-5.77Q25.38-5.04 25.6-4.46 25.82-3.89 26.21-3.49 26.6-3.1 27.12-2.9 27.65-2.69 28.24-2.69L28.24-2.69Q28.83-2.69 29.36-2.95 29.88-3.21 30.27-3.64 30.66-4.07 30.89-4.62 31.12-5.18 31.12-5.77ZM45.52 0L44.56-1.32Q44.22-1.01 43.82-0.73 43.42-0.44 42.99-0.24 42.55-0.03 42.09 0.09 41.63 0.21 41.16 0.21L41.16 0.21Q40.11 0.21 39.19-0.16 38.26-0.53 37.57-1.21 36.88-1.9 36.48-2.87 36.08-3.85 36.08-5.07L36.08-5.07 36.08-11.34 38.96-11.34 38.96-5.07Q38.96-4.5 39.14-4.05 39.31-3.6 39.61-3.29 39.91-2.99 40.3-2.83 40.7-2.67 41.16-2.67L41.16-2.67Q41.6-2.67 42-2.87 42.39-3.08 42.69-3.42 42.99-3.76 43.16-4.19 43.33-4.62 43.33-5.07L43.33-5.07 43.33-11.34 46.22-11.34 46.22 0 45.52 0ZM58.35-9.31L52.93-2.77Q53.1-2.72 53.27-2.71 53.44-2.69 53.61-2.69L53.61-2.69Q54.03-2.69 54.42-2.81 54.81-2.92 55.16-3.14 55.5-3.36 55.77-3.67 56.04-3.98 56.21-4.36L56.21-4.36 58.33-2.23Q57.93-1.66 57.4-1.21 56.88-0.75 56.27-0.43 55.66-0.12 54.99 0.05 54.32 0.21 53.61 0.21L53.61 0.21Q52.41 0.21 51.36-0.23 50.3-0.68 49.51-1.47 48.73-2.27 48.27-3.36 47.82-4.46 47.82-5.77L47.82-5.77Q47.82-7.12 48.27-8.23 48.73-9.34 49.51-10.12 50.3-10.91 51.36-11.34 52.41-11.77 53.61-11.77L53.61-11.77Q54.32-11.77 54.99-11.6 55.67-11.43 56.28-11.12 56.89-10.8 57.42-10.34 57.95-9.88 58.35-9.31L58.35-9.31ZM51.04-4.27L54.41-8.74Q54.21-8.81 54.01-8.83 53.82-8.85 53.61-8.85L53.61-8.85Q53.01-8.85 52.49-8.63 51.97-8.42 51.58-8.02 51.19-7.61 50.97-7.05 50.75-6.48 50.75-5.77L50.75-5.77Q50.75-5.61 50.76-5.41 50.78-5.21 50.82-5 50.85-4.8 50.91-4.61 50.96-4.42 51.04-4.27L51.04-4.27ZM71.15-5.77L71.15-5.77Q71.15-4.44 70.7-3.34 70.24-2.23 69.46-1.45 68.67-0.66 67.62-0.22 66.57 0.21 65.36 0.21L65.36 0.21Q64.16 0.21 63.11-0.23 62.06-0.68 61.27-1.47 60.48-2.27 60.02-3.36 59.57-4.46 59.57-5.77L59.57-5.77 59.57-15.85 62.47-15.85 62.47-10.56Q62.7-10.85 63.04-11.09 63.37-11.32 63.76-11.47 64.14-11.61 64.55-11.69 64.97-11.77 65.36-11.77L65.36-11.77Q66.57-11.77 67.62-11.32 68.67-10.87 69.46-10.07 70.24-9.26 70.7-8.17 71.15-7.07 71.15-5.77ZM68.24-5.77L68.24-5.77Q68.24-6.43 68.01-6.99 67.78-7.56 67.39-7.97 67-8.39 66.48-8.62 65.95-8.85 65.36-8.85L65.36-8.85Q64.77-8.85 64.24-8.59 63.72-8.33 63.33-7.9 62.93-7.48 62.71-6.92 62.49-6.36 62.49-5.77L62.49-5.77Q62.49-5.11 62.71-4.55 62.93-3.99 63.33-3.58 63.72-3.17 64.24-2.93 64.77-2.69 65.36-2.69L65.36-2.69Q65.95-2.69 66.48-2.93 67-3.17 67.39-3.58 67.78-3.99 68.01-4.55 68.24-5.11 68.24-5.77ZM82.04 0L81.08-1.32Q80.73-1.01 80.34-0.73 79.94-0.44 79.5-0.24 79.07-0.03 78.61 0.09 78.15 0.21 77.67 0.21L77.67 0.21Q76.63 0.21 75.7-0.16 74.78-0.53 74.09-1.21 73.4-1.9 73-2.87 72.6-3.85 72.6-5.07L72.6-5.07 72.6-11.34 75.48-11.34 75.48-5.07Q75.48-4.5 75.66-4.05 75.83-3.6 76.13-3.29 76.42-2.99 76.82-2.83 77.22-2.67 77.67-2.67L77.67-2.67Q78.12-2.67 78.51-2.87 78.91-3.08 79.21-3.42 79.5-3.76 79.67-4.19 79.84-4.62 79.84-5.07L79.84-5.07 79.84-11.34 82.73-11.34 82.73 0 82.04 0ZM91.16 0L91.16 0 84.56 0 84.56-2.88 91.16-2.88Q91.46-2.88 91.67-3.09 91.88-3.3 91.88-3.6L91.88-3.6Q91.88-3.91 91.67-4 91.46-4.1 91.16-4.1L91.16-4.1 88.16-4.1Q87.4-4.1 86.75-4.38 86.09-4.67 85.6-5.16 85.12-5.65 84.84-6.31 84.56-6.97 84.56-7.72L84.56-7.72Q84.56-8.47 84.84-9.13 85.12-9.78 85.6-10.27 86.09-10.76 86.75-11.04 87.4-11.32 88.16-11.32L88.16-11.32 94.01-11.32 94.01-8.44 88.16-8.44Q87.86-8.44 87.65-8.23 87.44-8.02 87.44-7.72L87.44-7.72Q87.44-7.41 87.65-7.19 87.86-6.98 88.16-6.98L88.16-6.98 91.16-6.98Q91.9-6.98 92.56-6.73 93.22-6.48 93.7-6.04 94.19-5.59 94.48-4.97 94.76-4.34 94.76-3.6L94.76-3.6Q94.76-2.85 94.48-2.2 94.19-1.55 93.7-1.05 93.22-0.56 92.56-0.28 91.9 0 91.16 0Z" stroke-width="1.3" stroke-linejoin="round" stroke="#fff" fill="#fff"></path></mask><mask id="cg9HptVaNCBwLtKIa7xHK"><path d="M4.51-14.42L4.51-14.42Q4.51-14.02 4.36-13.67 4.2-13.32 3.94-13.06 3.67-12.8 3.32-12.65 2.96-12.49 2.56-12.49L2.56-12.49Q2.16-12.49 1.81-12.65 1.45-12.8 1.19-13.06 0.93-13.32 0.78-13.67 0.62-14.02 0.62-14.42L0.62-14.42Q0.62-14.81 0.78-15.17 0.93-15.52 1.19-15.78 1.45-16.04 1.81-16.19 2.16-16.35 2.56-16.35L2.56-16.35Q2.96-16.35 3.32-16.19 3.67-16.04 3.94-15.78 4.2-15.52 4.36-15.17 4.51-14.81 4.51-14.42ZM4.01-11.34L4.01 0 1.1 0 1.1-11.34 4.01-11.34ZM9.11-6.48L9.11 0 6.22 0 6.22-11.34 6.91-11.34 7.87-10.24Q8.57-10.87 9.45-11.22 10.33-11.56 11.3-11.56L11.3-11.56Q12.33-11.56 13.26-11.16 14.18-10.77 14.87-10.07 15.55-9.38 15.95-8.45 16.35-7.53 16.35-6.48L16.35-6.48 16.35 0 13.46 0 13.46-6.48Q13.46-6.92 13.29-7.32 13.12-7.72 12.82-8.02 12.53-8.31 12.13-8.48 11.74-8.65 11.3-8.65L11.3-8.65Q10.84-8.65 10.44-8.48 10.04-8.31 9.74-8.02 9.44-7.72 9.28-7.32 9.11-6.92 9.11-6.48L9.11-6.48ZM26.13 0L23.94 0Q22.89 0 21.97-0.4 21.05-0.79 20.36-1.49 19.66-2.18 19.26-3.1 18.87-4.02 18.87-5.07L18.87-5.07 18.87-8.44 17.46-8.44 17.46-11.32 18.87-11.32 18.87-15.85 21.75-15.85 21.75-11.32 26.13-11.32 26.13-8.44 21.75-8.44 21.75-5.07Q21.75-4.62 21.92-4.22 22.09-3.82 22.38-3.53 22.68-3.23 23.08-3.05 23.48-2.88 23.94-2.88L23.94-2.88 26.13-2.88 26.13 0ZM37.68-9.31L32.26-2.77Q32.43-2.72 32.6-2.71 32.77-2.69 32.94-2.69L32.94-2.69Q33.36-2.69 33.75-2.81 34.15-2.92 34.49-3.14 34.83-3.36 35.1-3.67 35.37-3.98 35.54-4.36L35.54-4.36 37.66-2.23Q37.26-1.66 36.73-1.21 36.21-0.75 35.6-0.43 34.99-0.12 34.32 0.05 33.65 0.21 32.94 0.21L32.94 0.21Q31.74 0.21 30.69-0.23 29.64-0.68 28.85-1.47 28.06-2.27 27.6-3.36 27.15-4.46 27.15-5.77L27.15-5.77Q27.15-7.12 27.6-8.23 28.06-9.34 28.85-10.12 29.64-10.91 30.69-11.34 31.74-11.77 32.94-11.77L32.94-11.77Q33.65-11.77 34.33-11.6 35-11.43 35.61-11.12 36.22-10.8 36.75-10.34 37.28-9.88 37.68-9.31L37.68-9.31ZM30.38-4.27L33.74-8.74Q33.54-8.81 33.35-8.83 33.15-8.85 32.94-8.85L32.94-8.85Q32.35-8.85 31.82-8.63 31.3-8.42 30.91-8.02 30.53-7.61 30.3-7.05 30.08-6.48 30.08-5.77L30.08-5.77Q30.08-5.61 30.1-5.41 30.11-5.21 30.15-5 30.19-4.8 30.24-4.61 30.29-4.42 30.38-4.27L30.38-4.27ZM42.04-15.85L42.04 0 39.13 0 39.13-15.85 42.04-15.85ZM47.16-15.85L47.16 0 44.25 0 44.25-15.85 47.16-15.85ZM52.77-14.42L52.77-14.42Q52.77-14.02 52.62-13.67 52.46-13.32 52.2-13.06 51.93-12.8 51.58-12.65 51.22-12.49 50.82-12.49L50.82-12.49Q50.42-12.49 50.07-12.65 49.71-12.8 49.45-13.06 49.19-13.32 49.04-13.67 48.88-14.02 48.88-14.42L48.88-14.42Q48.88-14.81 49.04-15.17 49.19-15.52 49.45-15.78 49.71-16.04 50.07-16.19 50.42-16.35 50.82-16.35L50.82-16.35Q51.22-16.35 51.58-16.19 51.93-16.04 52.2-15.78 52.46-15.52 52.62-15.17 52.77-14.81 52.77-14.42ZM52.27-11.34L52.27 0 49.36 0 49.36-11.34 52.27-11.34ZM62.54-5.77L62.54-5.77Q62.54-6.36 62.32-6.92 62.09-7.48 61.7-7.9 61.3-8.33 60.78-8.59 60.26-8.85 59.66-8.85L59.66-8.85Q59.07-8.85 58.55-8.65 58.02-8.45 57.64-8.06 57.25-7.67 57.03-7.09 56.8-6.51 56.8-5.77L56.8-5.77Q56.8-5.06 57.03-4.49 57.25-3.93 57.64-3.53 58.02-3.12 58.55-2.91 59.07-2.69 59.66-2.69L59.66-2.69Q60.26-2.69 60.78-2.95 61.3-3.21 61.7-3.64 62.09-4.07 62.32-4.62 62.54-5.18 62.54-5.77ZM65.45-11.32L65.45-1.43Q65.45-0.23 65 0.82 64.54 1.86 63.76 2.65 62.97 3.43 61.91 3.89 60.86 4.34 59.66 4.34L59.66 4.34 58.21 4.32 58.21 1.43 59.64 1.45Q60.32 1.45 60.8 1.28 61.27 1.1 61.6 0.8 61.93 0.5 62.12 0.11 62.32-0.29 62.44-0.72L62.44-0.72Q62.27-0.44 61.95-0.27 61.63-0.1 61.25 0.02 60.86 0.13 60.44 0.17 60.02 0.21 59.66 0.21L59.66 0.21Q58.47 0.21 57.41-0.2 56.36-0.61 55.57-1.38 54.78-2.15 54.33-3.26 53.87-4.37 53.87-5.77L53.87-5.77Q53.87-7.05 54.33-8.15 54.78-9.25 55.57-10.06 56.36-10.86 57.41-11.32 58.47-11.77 59.66-11.77L59.66-11.77Q60.21-11.77 60.75-11.64 61.29-11.5 61.8-11.25 62.31-11.01 62.77-10.68 63.23-10.36 63.63-9.97L63.63-9.97 64.76-11.32 65.45-11.32ZM77.59-9.31L72.17-2.77Q72.34-2.72 72.51-2.71 72.68-2.69 72.85-2.69L72.85-2.69Q73.27-2.69 73.66-2.81 74.05-2.92 74.4-3.14 74.74-3.36 75.01-3.67 75.28-3.98 75.45-4.36L75.45-4.36 77.57-2.23Q77.17-1.66 76.64-1.21 76.12-0.75 75.51-0.43 74.9-0.12 74.23 0.05 73.55 0.21 72.85 0.21L72.85 0.21Q71.65 0.21 70.6-0.23 69.54-0.68 68.75-1.47 67.96-2.27 67.51-3.36 67.05-4.46 67.05-5.77L67.05-5.77Q67.05-7.12 67.51-8.23 67.96-9.34 68.75-10.12 69.54-10.91 70.6-11.34 71.65-11.77 72.85-11.77L72.85-11.77Q73.55-11.77 74.23-11.6 74.91-11.43 75.52-11.12 76.13-10.8 76.66-10.34 77.19-9.88 77.59-9.31L77.59-9.31ZM70.28-4.27L73.65-8.74Q73.45-8.81 73.25-8.83 73.06-8.85 72.85-8.85L72.85-8.85Q72.25-8.85 71.73-8.63 71.2-8.42 70.82-8.02 70.43-7.61 70.21-7.05 69.99-6.48 69.99-5.77L69.99-5.77Q69.99-5.61 70-5.41 70.02-5.21 70.06-5 70.09-4.8 70.15-4.61 70.2-4.42 70.28-4.27L70.28-4.27ZM81.93-6.48L81.93 0 79.04 0 79.04-11.34 79.74-11.34 80.69-10.24Q81.39-10.87 82.27-11.22 83.16-11.56 84.12-11.56L84.12-11.56Q85.16-11.56 86.08-11.16 87-10.77 87.69-10.07 88.38-9.38 88.77-8.45 89.17-7.53 89.17-6.48L89.17-6.48 89.17 0 86.28 0 86.28-6.48Q86.28-6.92 86.11-7.32 85.94-7.72 85.65-8.02 85.35-8.31 84.96-8.48 84.57-8.65 84.12-8.65L84.12-8.65Q83.67-8.65 83.26-8.48 82.86-8.31 82.56-8.02 82.27-7.72 82.1-7.32 81.93-6.92 81.93-6.48L81.93-6.48ZM101.14-9.08L101.14-9.08 99.02-6.96Q98.86-7.4 98.58-7.76 98.31-8.11 97.97-8.35 97.62-8.6 97.22-8.72 96.82-8.85 96.39-8.85L96.39-8.85Q95.8-8.85 95.28-8.61 94.75-8.36 94.37-7.93 93.98-7.49 93.76-6.88 93.53-6.28 93.53-5.55L93.53-5.55Q93.53-4.96 93.76-4.44 93.98-3.92 94.37-3.53 94.75-3.13 95.28-2.91 95.8-2.69 96.39-2.69L96.39-2.69Q96.82-2.69 97.21-2.81 97.6-2.92 97.94-3.14 98.29-3.36 98.56-3.67 98.83-3.98 99-4.36L99-4.36 101.11-2.23Q100.71-1.66 100.19-1.21 99.66-0.75 99.06-0.43 98.45-0.12 97.77 0.05 97.1 0.21 96.39 0.21L96.39 0.21Q95.2 0.21 94.14-0.24 93.09-0.69 92.3-1.47 91.51-2.26 91.06-3.3 90.6-4.35 90.6-5.55L90.6-5.55Q90.6-6.85 91.06-7.98 91.51-9.12 92.3-9.96 93.09-10.8 94.14-11.29 95.2-11.77 96.39-11.77L96.39-11.77Q97.1-11.77 97.79-11.59 98.47-11.41 99.09-11.07 99.71-10.73 100.23-10.23 100.75-9.73 101.14-9.08ZM112.31-9.31L106.89-2.77Q107.05-2.72 107.22-2.71 107.39-2.69 107.56-2.69L107.56-2.69Q107.99-2.69 108.38-2.81 108.77-2.92 109.11-3.14 109.46-3.36 109.73-3.67 110-3.98 110.17-4.36L110.17-4.36 112.29-2.23Q111.88-1.66 111.36-1.21 110.83-0.75 110.23-0.43 109.62-0.12 108.94 0.05 108.27 0.21 107.56 0.21L107.56 0.21Q106.37 0.21 105.31-0.23 104.26-0.68 103.47-1.47 102.68-2.27 102.23-3.36 101.77-4.46 101.77-5.77L101.77-5.77Q101.77-7.12 102.23-8.23 102.68-9.34 103.47-10.12 104.26-10.91 105.31-11.34 106.37-11.77 107.56-11.77L107.56-11.77Q108.27-11.77 108.95-11.6 109.63-11.43 110.24-11.12 110.85-10.8 111.37-10.34 111.9-9.88 112.31-9.31L112.31-9.31ZM105-4.27L108.37-8.74Q108.17-8.81 107.97-8.83 107.77-8.85 107.56-8.85L107.56-8.85Q106.97-8.85 106.45-8.63 105.92-8.42 105.54-8.02 105.15-7.61 104.93-7.05 104.7-6.48 104.7-5.77L104.7-5.77Q104.7-5.61 104.72-5.41 104.74-5.21 104.77-5 104.81-4.8 104.86-4.61 104.92-4.42 105-4.27L105-4.27Z" stroke-width="1.3" stroke-linejoin="round" stroke="#fff" fill="#fff"></path></mask><defs v-gra="od"></defs></g></svg>